<?xml version="1.0" encoding="iso-8859-1"?>
<!-- Generator: Adobe Illustrator 19.0.0, SVG Export Plug-In . SVG Version: 6.00 Build 0)  -->
<svg version="1.1" id="Capa_1" xmlns="http://www.w3.org/2000/svg" xmlns:xlink="http://www.w3.org/1999/xlink" x="0px" y="0px"
	 viewBox="0 0 512.001 512.001" style="enable-background:new 0 0 512.001 512.001;" xml:space="preserve">
<path style="fill:#099115;" d="M391.03,45.958c-0.308-5.027-3.122-9.557-7.475-12.077c-4.339-2.506-9.674-2.653-14.188-0.439
	c-1.671,0.835-41.508,20.783-80.687,52.487l20.036,68.624l77.198-12.473C393.785,92.304,391.148,47.82,391.03,45.958z"/>
<g>
	<path style="fill:#0DAE1C;" d="M476.95,127.276c-2.521-4.354-7.05-7.167-12.063-7.475c-3.635-0.176-89.672-5.232-156.362,20.652
		c-7.739,3.005-11.565,11.696-8.574,19.42l5.438,130.536c2.345,5.877,7.988,9.469,13.953,9.469c1.847,0,3.723-0.337,5.54-1.056
		c10.729-4.266,22.044-9.82,33.609-16.504c67.745-39.12,116.845-136.721,118.898-140.854
		C479.632,136.963,479.455,131.628,476.95,127.276z"/>
	<path style="fill:#0DAE1C;" d="M142.593,33.441c-4.485-2.213-9.82-2.066-14.188,0.439c-4.354,2.521-7.167,7.05-7.475,12.077
		c-0.117,1.861-2.756,46.345,5.115,96.12l54.451,20.095l42.784-76.246C184.102,54.225,144.264,34.276,142.593,33.441z"/>
</g>
<path style="fill:#32D735;" d="M331.024,179.806c0,85.249-33.92,109.863-54.332,116.768l-20.712-31.821l-72.943-112.566
	C194.144,81.347,241.572,9.306,243.373,6.303C246.374,2.1,251.178,0,255.979,0c4.802,0,9.606,2.099,12.606,6.303
	C270.989,10.206,331.024,101.46,331.024,179.806z"/>
<path style="fill:#11C922;" d="M331.024,179.806c0,85.249-33.92,109.863-54.332,116.768l-20.712-31.821V0.001
	c4.802,0,9.606,2.099,12.606,6.303C270.989,10.206,331.024,101.46,331.024,179.806z"/>
<path style="fill:#61DE56;" d="M295.002,277.364c-4.502,8.104-10.505,14.407-17.709,19.51l-21.313,0.902l-63.337,2.101
	c-1.801,0-3.602-0.3-5.703-1.202c-10.507-4.201-21.914-9.604-33.62-16.51C85.78,243.143,36.551,145.585,34.449,141.383
	c-2.101-4.502-1.801-9.606,0.601-14.107c2.4-4.504,6.903-7.204,12.006-7.504c4.504-0.3,113.768-6.605,181.307,32.418
	c10.505,6.004,19.811,12.308,27.615,18.312C320.518,219.43,302.808,263.855,295.002,277.364z"/>
<path style="fill:#32D735;" d="M277.293,296.874l-21.313,0.902V170.501c64.539,48.929,46.827,93.355,39.023,106.863
	C290.501,285.466,284.497,291.771,277.293,296.874z"/>
<path style="fill:#E5E5E5;" d="M387.758,275.261c-3.003-3.302-7.204-5.403-11.707-5.403H135.91c-4.504,0-8.704,2.101-11.707,5.403
	c-2.701,3.602-3.902,8.106-3.001,12.606l30.018,182.107c1.501,6.903,7.504,12.008,14.709,12.008h180.106
	c7.204,0,13.208-5.104,14.709-12.008l30.018-182.107C391.66,283.367,390.458,278.863,387.758,275.261z"/>
<path style="fill:#C8C6CD;" d="M390.758,287.869l-30.018,182.107c-1.501,6.903-7.504,12.008-14.709,12.008h-90.053V269.859h120.07
	c4.504,0,8.704,2.101,11.707,5.403C390.458,278.863,391.66,283.367,390.758,287.869z"/>
<path style="fill:#BF6015;" d="M419.576,473.578l-11.107,21.914c-4.804,10.205-15.309,16.51-26.716,16.51H130.207
	c-11.407,0-21.912-6.305-26.716-16.51l-11.107-21.914c-4.802-9.905,2.402-21.612,13.508-21.612h300.176
	C417.175,451.966,424.378,463.673,419.576,473.578z"/>
<path style="fill:#994C10;" d="M419.576,473.578l-11.107,21.914c-4.804,10.205-15.309,16.51-26.716,16.51H255.98v-60.035h150.088
	C417.175,451.966,424.378,463.673,419.576,473.578z"/>
<g>
</g>
<g>
</g>
<g>
</g>
<g>
</g>
<g>
</g>
<g>
</g>
<g>
</g>
<g>
</g>
<g>
</g>
<g>
</g>
<g>
</g>
<g>
</g>
<g>
</g>
<g>
</g>
<g>
</g>
</svg>
