<svg id="Capa_1" enable-background="new 0 0 508.359 508.359" height="512" viewBox="0 0 508.359 508.359" width="512" xmlns="http://www.w3.org/2000/svg"><g><path d="m445.629 349.848-101.538-73.576c-22.506-16.308-52.584-17.573-76.38-3.211l-68.309 41.227-79.933 54.244 26.224 38.688 157.255 39.366 135.578-50.992 45.649-27.062z" fill="#fccd7f"/><path d="m166.01 388.865 79.933-54.245 68.309-41.227c12.268-7.404 26.205-10.644 39.915-9.821l-10.077-7.301c-22.506-16.309-52.584-17.573-76.38-3.212l-68.309 41.227-79.933 54.244 26.224 38.688 39.454 9.876z" fill="#fbc56d"/><g><g id="XMLID_305_"><g><path d="m430.573 338.938-26.841 15.619c-5.21 3.032-11.77 1.912-15.837-2.536-3.281-3.588-6.972-6.829-11.03-9.666-11.219-7.819-24.366-11.952-38.02-11.952h-59.089l-.15-.15c-15.938-15.939-36.127-26.078-58.007-29.362l-22.197 13.397-79.933 54.244 26.224 38.688 157.255 39.366 135.578-50.992 45.649-27.062-38.544-18.684z" fill="#fbc56d"/><path d="m386.074 384.503 81.16-47.23c3.52-2.05 7.4-3.04 11.24-3.04 6.53 0 12.95 2.85 17.32 8.21 8.04 9.82 6.3 24.34-3.81 32l-120.96 91.5c-12.58 9.51-27.92 14.66-43.69 14.66h-24.05c-9.59 0-19.08-1.91-27.93-5.61l-88.92-37.18-141.19.75v-96.29h96.99c16.36-16.36 38.55-25.55 61.68-25.55h2c23.13 0 45.31 9.19 61.67 25.55l5.14 5.13h66.12c10.37 0 20.18 3.24 28.3 8.9 8.11 5.67 14.53 13.78 18.1 23.51.55 1.5.83 3.09.83 4.69z" fill="#fed2a4"/><path d="m495.014 341.54c-.909.996-1.916 1.927-3.03 2.771l-120.96 91.5c-12.58 9.51-27.92 14.66-43.69 14.66h-24.05c-9.59 0-19.08-1.91-27.93-5.61l-88.92-37.18-141.19.75v30.131l141.19-.75 88.92 37.18c8.85 3.7 18.34 5.61 27.93 5.61h24.05c15.77 0 31.11-5.15 43.69-14.66l120.96-91.5c10.11-7.66 11.85-22.18 3.81-32-.252-.309-.514-.609-.78-.902z" fill="#ffbd86"/></g><path d="m380.649 390.49.901-.941c1.571-1.635 3.065-3.346 4.522-5.089-.005-1.585-.283-3.161-.828-4.647-1.491-4.064-3.486-7.842-5.888-11.281-2.585 3.764-5.467 7.338-8.627 10.629l-.918.958c-2.912 3.043-5.924 6.189-8.934 8.541-2.939 2.296-6.739 3.561-10.7 3.561h-61.486c-4.143 0-7.5 3.357-7.5 7.5s3.357 7.5 7.5 7.5h61.486c7.291 0 14.37-2.394 19.935-6.74 3.864-3.02 7.409-6.723 10.537-9.991z" fill="#ffbd86"/></g></g><path d="m83.994 458.86h-76.494v-137.637h76.494c8.75 0 15.844 7.094 15.844 15.844v105.949c0 8.751-7.094 15.844-15.844 15.844z" fill="#60b7ff"/><g><path d="m7.5 480.543c-4.143 0-7.5-3.357-7.5-7.5v-154.899c0-4.143 3.357-7.5 7.5-7.5s7.5 3.357 7.5 7.5v154.898c0 4.143-3.357 7.501-7.5 7.501z" fill="#26a6fe"/></g><path d="m411.71 27.757h-39.271c-34.439 0-67.038 15.546-88.715 42.308-7.574 9.351-10.68 21.547-8.5 33.382 2.794 15.17 13.832 27.506 28.599 31.964l6.184 1.867 12.44 14.083c11.216 12.698 27.702 19.454 44.603 18.28 14-.972 26.541-9.007 33.276-21.319 12.973-23.714 19.772-50.31 19.772-77.34v-34.837c.001-4.632-3.755-8.388-8.388-8.388z" fill="#97da7b"/><g><path d="m296.128 117.866c-2.18-11.834.925-24.03 8.5-33.381 21.677-26.762 54.276-42.308 88.715-42.308h26.756v-6.031c0-4.633-3.756-8.388-8.388-8.388h-39.271c-34.439 0-67.038 15.546-88.715 42.308-7.574 9.351-10.68 21.547-8.5 33.382 2.794 15.169 13.832 27.506 28.599 31.964l.124.038c-3.887-5.074-6.619-11.065-7.82-17.584z" fill="#80d261"/></g><path d="m211.738 177.788h-10.889c-22.764 0-41.219-18.454-41.219-41.219v-38.574c0-1.46 1.184-2.644 2.644-2.644h49.464c22.765 0 41.219 18.454 41.219 41.219 0 22.764-18.454 41.218-41.219 41.218z" fill="#97da7b"/><path d="m183.219 136.57v-38.575c0-1.46 1.184-2.644 2.644-2.644h-23.588c-1.46 0-2.644 1.184-2.644 2.644v38.575c0 22.765 18.454 41.219 41.219 41.219h10.889c2.16 0 4.28-.168 6.35-.488-19.751-3.054-34.87-20.126-34.87-40.731z" fill="#80d261"/><path d="m501.603 337.691c-9.344-11.421-25.384-14.323-38.136-6.901l-17.391 10.12-97.585-70.711c-11.399-8.26-24.575-13.034-38.045-14.258v-81.615c0-7.376 1.019-14.739 2.992-21.837l3.388 3.836c11.742 13.293 28.885 20.943 46.529 20.943 1.401 0 2.808-.048 4.214-.146 16.63-1.154 31.336-10.576 39.337-25.203.118-.216.232-.435.346-.652l.175-.332c1.965-3.646.602-8.195-3.044-10.161-3.649-1.965-8.196-.603-10.161 3.044l-.476.904c-5.536 10.119-15.71 16.638-27.216 17.436-14.479 1.011-28.855-4.888-38.462-15.764l-8.464-9.581c.067-.129.129-.261.197-.39l11.958-22.746c13.456-24.081 34.958-43.006 60.555-53.295 3.844-1.545 5.707-5.913 4.162-9.756-1.546-3.845-5.919-5.704-9.756-4.162-28.799 11.577-52.986 32.88-68.105 59.986-.03.054-.06.108-.089.163l-11.525 21.922-1.01-.305c-12.133-3.663-21.096-13.682-23.392-26.144-1.785-9.692.749-19.644 6.952-27.302 20.348-25.121 50.559-39.529 82.887-39.529h39.271c.489 0 .888.398.888.889v34.836c0 15.109-2.24 30.142-6.659 44.681-1.205 3.963 1.031 8.152 4.995 9.356 3.96 1.203 8.152-1.031 9.356-4.995 4.849-15.953 7.308-32.454 7.308-49.042v-34.835c0-8.761-7.127-15.889-15.888-15.889h-39.271c-36.874 0-71.333 16.434-94.543 45.088-8.966 11.068-12.628 25.451-10.048 39.461 3.271 17.755 15.916 32.059 33.071 37.535-3.598 10.254-5.474 21.105-5.474 31.986v6.343c-6.163-8.136-14.036-15.043-23.291-20.13l-14.425-7.928c1.759-5.027 2.727-10.422 2.727-16.042 0-26.863-21.855-48.719-48.719-48.719h-49.464c-5.593 0-10.144 4.551-10.144 10.145v38.574c0 26.863 21.855 48.719 48.719 48.719h10.889c15.887 0 30.019-7.646 38.918-19.45l14.274 7.845c18.822 10.346 30.516 30.115 30.516 51.594v30.773c-10.581 1.112-21.005 4.418-30.555 9.977-3.579 2.083-4.792 6.675-2.708 10.255 2.083 3.579 6.674 4.792 10.255 2.708 21.095-12.279 47.492-10.962 67.252 3.355l92.208 66.814-41.282 24.022c-9.179-20.073-29.462-33.279-51.774-33.279h-19.621c-4.143 0-7.5 3.357-7.5 7.5s3.357 7.5 7.5 7.5h19.621c17.513 0 33.328 11.047 39.356 27.49.249.679.375 1.389.375 2.111 0 3.383-2.753 6.135-6.137 6.135h-83.6c-4.143 0-7.5 3.357-7.5 7.5s3.357 7.5 7.5 7.5h83.6c10.068 0 18.499-7.08 20.613-16.518l77.962-45.367c6.347-3.694 14.33-2.251 18.981 3.435 2.582 3.157 3.738 7.126 3.256 11.176-.483 4.049-2.541 7.634-5.793 10.094l-120.96 91.499c-11.206 8.477-25.114 13.145-39.164 13.145h-24.043c-8.644 0-17.07-1.691-25.046-5.026l-88.912-37.181c-.917-.384-1.9-.581-2.894-.581h-79.1v-80.544h34.898c1.989 0 3.896-.79 5.304-2.196 15.059-15.06 35.079-23.353 56.374-23.353h1.995c21.295 0 41.315 8.293 56.375 23.353l5.134 5.133c1.406 1.406 3.313 2.196 5.303 2.196h14.483c4.143 0 7.5-3.357 7.5-7.5s-3.357-7.5-7.5-7.5h-11.377l-2.937-2.937c-14.412-14.411-32.649-23.603-52.421-26.635l24.437-14.749c3.547-2.14 4.687-6.75 2.546-10.296-2.14-3.547-6.75-4.686-10.296-2.546l-41.631 25.126c-.864.521-1.582 1.19-2.148 1.954-20.281 2.231-39.143 10.863-54.177 24.95h-31.978c-1.158-11.798-11.133-21.047-23.23-21.047h-68.988v-5.579c0-4.143-3.357-7.5-7.5-7.5s-7.5 3.357-7.5 7.5v13.079 137.637 17.183c0 4.143 3.357 7.5 7.5 7.5s7.5-3.357 7.5-7.5v-9.683h68.994c12.097 0 22.072-9.249 23.229-21.046h77.709l87.523 36.6c9.817 4.106 20.191 6.188 30.833 6.188h24.043c17.296 0 34.418-5.747 48.213-16.182l120.96-91.499c6.534-4.942 10.667-12.145 11.638-20.279.972-8.135-1.351-16.109-6.539-22.451zm-289.865-167.403h-10.888c-18.593 0-33.719-15.126-33.719-33.719v-33.719h44.607c18.593 0 33.719 15.126 33.719 33.719 0 2.998-.398 5.903-1.136 8.672l-41.307-22.703c-3.628-1.995-8.189-.671-10.185 2.96-1.995 3.63-.67 8.189 2.96 10.185l41.525 22.823c-6.188 7.205-15.355 11.782-25.576 11.782zm-119.4 272.728c0 4.601-3.743 8.344-8.344 8.344h-68.994v-122.637h68.994c4.601 0 8.344 3.743 8.344 8.344z"/></g></svg>