<svg id="Capa_1" enable-background="new 0 0 512 512" height="512" viewBox="0 0 512 512" width="512" xmlns="http://www.w3.org/2000/svg"><g><g><path clip-rule="evenodd" d="m26.332 440.832-17.998 53.203c-1.251 4.806-1.194 8.047.853 9.554h9.44c.853-.228 1.763-.512 2.73-.825l35.598-12.085 14.359-4.862-12.979-35.553z" fill="#b5c4cf" fill-rule="evenodd"/></g><g><path clip-rule="evenodd" d="m381.656 55.784-213.957 213.979-126.212 126.254c0 30.853 23.855 68.928 74.551 74.558l340.197-340.205-13.335-61.278z" fill="#fdb440" fill-rule="evenodd"/></g><g><path clip-rule="evenodd" d="m26.332 440.832 44.981 44.985 44.725-15.242c-7.165-16.208-18.737-31.791-30.679-44.161-15.61-16.151-32.186-27.185-43.872-30.398z" fill="#fcd79b" fill-rule="evenodd"/></g><g><path clip-rule="evenodd" d="m71.312 485.817 44.725-15.242c-3.554-8.047-8.217-15.952-13.449-23.374l-52.146 17.744z" fill="#fbc56c" fill-rule="evenodd"/></g><g><path clip-rule="evenodd" d="m56.954 490.68 14.359-4.862-20.87-20.872-6.966 2.36-29.513 10.009-5.63 16.72c-1.251 4.806-1.194 8.047.853 9.554h9.44c.853-.228 1.763-.512 2.73-.825z" fill="#9aafb7" fill-rule="evenodd"/></g><g><path clip-rule="evenodd" d="m381.286 56.154 74.551 74.558 41.825-41.829c9.098-9.099 9.098-24 0-33.099l-41.455-41.459c-9.098-9.099-23.997-9.099-33.096 0z" fill="#fe636e" fill-rule="evenodd"/></g><g><path clip-rule="evenodd" d="m438.549 113.423h.028zm17.287 17.289 41.825-41.829c9.098-9.099 9.098-24 0-33.099l-20.159-20.161c9.098 9.099 9.098 24 0 33.099l-41.825 41.829 2.872 2.872h.028l.028.028z" fill="#fb2a39" fill-rule="evenodd"/></g><g><path clip-rule="evenodd" d="m344.295 93.12 37.275 37.279 37.304 37.308 2.872 2.844c1.99 2.019 5.26 2.019 7.279 0l29.684-29.687c2.019-1.99 2.019-5.289 0-7.28l-2.872-2.872-74.551-74.558-2.872-2.872c-1.99-2.019-5.288-2.019-7.279 0l-29.712 29.687c-1.99 2.019-1.99 5.289 0 7.28z" fill="#edf3f4" fill-rule="evenodd"/></g><g><path clip-rule="evenodd" d="m429.024 170.551 29.684-29.687c2.019-1.99 2.019-5.289 0-7.28l-2.872-2.872-17.23-17.26c1.962 2.019 1.933 5.261-.057 7.251l-29.684 29.687c-1.99 2.019-5.26 2.019-7.25.028v.028l17.259 17.261 2.872 2.844c1.99 2.019 5.26 2.019 7.278 0z" fill="#d7e7ec" fill-rule="evenodd"/></g><g><path clip-rule="evenodd" d="m400.45 149.281-297.862 297.921c5.232 7.422 9.895 15.327 13.449 23.374l302.837-302.869-17.259-17.261s0 0 0-.028z" fill="#fb8800" fill-rule="evenodd"/></g><g><path d="m101.974 409.792c1.465 1.466 3.385 2.199 5.306 2.199 1.918 0 3.837-.731 5.301-2.194l250.834-250.632c2.931-2.928 2.933-7.676.005-10.607-2.928-2.93-7.677-2.933-10.606-.005l-250.835 250.632c-2.931 2.928-2.933 7.677-.005 10.607z"/><path d="m502.964 50.481-41.454-41.46c-5.818-5.817-13.578-9.021-21.851-9.021-8.274 0-16.035 3.204-21.852 9.021l-36.856 36.859c-1.863-1.048-3.971-1.613-6.176-1.613-3.408 0-6.596 1.332-8.94 3.709l-29.752 29.727c-2.361 2.396-3.657 5.569-3.648 8.936.006 2.206.579 4.316 1.624 6.168l-135.553 135.539c-2.929 2.929-2.93 7.677-.001 10.607 1.464 1.465 3.384 2.197 5.304 2.197s3.838-.732 5.303-2.196l135.221-135.208 18.483 18.504c2.928 2.932 7.676 2.933 10.607.006 2.93-2.927 2.933-7.676.006-10.607l-25.025-25.053 26.37-26.348 76.967 76.976-26.358 26.36-27.396-27.372c-2.93-2.927-7.678-2.926-10.606.005-2.928 2.93-2.926 7.679.005 10.607l20.905 20.887-290.174 290.206c-6.868-12.543-16.336-25.288-27.366-36.714-11.853-12.264-24.618-22.082-35.969-27.874l129.793-129.807c2.929-2.929 2.929-7.678 0-10.607-2.929-2.93-7.678-2.929-10.606 0l-137.684 137.698c-.834.867-1.514 1.853-1.902 3.001l-33.153 98.018c-.06.176-.112.354-.159.533-.8 3.107-2.924 11.358 2.636 16.592 2.547 2.397 5.738 3.243 9.087 3.243 3.647 0 7.481-1.004 10.868-2.098.035-.011.07-.023.105-.035l94.686-32.191c1.633-.556 2.832-1.714 4.024-2.906l296.765-296.797c1.84 1.028 3.918 1.584 6.088 1.591h.045c3.38 0 6.557-1.316 8.952-3.711l29.645-29.649c2.418-2.383 3.75-5.572 3.75-8.981 0-2.211-.568-4.325-1.611-6.181l36.853-36.857c12.048-12.048 12.048-31.655 0-43.704zm-483.965 445.164c-1.485.479-2.663.792-3.582.996.035-.152.074-.313.115-.479l14.039-41.506 27.905 27.925-2.932.998zm54.301-18.449-38.366-38.395 11.172-33.03c8.756 4.108 20.821 12.365 33.857 25.853 10.458 10.834 19.35 22.878 25.604 34.592zm419.057-393.616-36.521 36.525-63.944-63.951 36.522-36.526c2.983-2.984 6.977-4.628 11.245-4.628 4.266 0 8.26 1.643 11.244 4.628l41.455 41.459c6.2 6.201 6.2 16.292-.001 22.493z"/></g></g></svg>