<?xml version="1.0" encoding="iso-8859-1"?>
<!-- Generator: Adobe Illustrator 19.0.0, SVG Export Plug-In . SVG Version: 6.00 Build 0)  -->
<svg version="1.1" id="Capa_1" xmlns="http://www.w3.org/2000/svg" xmlns:xlink="http://www.w3.org/1999/xlink" x="0px" y="0px"
	 viewBox="0 0 208.215 208.215" style="enable-background:new 0 0 208.215 208.215;" xml:space="preserve">
<path style="fill:#84D839;" d="M36.732,37.891c6.504-3.808,21.741-28.57,21.741-28.57s-28.96,1.103-35.466,4.91
	c-6.504,3.808-8.706,12.189-4.915,18.722C21.882,39.489,30.228,41.699,36.732,37.891z"/>
<path d="M29.9,43.171c-5.871,0-11.592-3.045-14.752-8.497c-2.29-3.948-2.915-8.557-1.754-12.976c1.162-4.422,3.966-8.122,7.9-10.426
	c6.888-4.031,32.072-5.185,37.05-5.371c1.205-0.154,2.442,0.604,3.075,1.695c0.631,1.092,0.616,2.451-0.046,3.523
	c-2.62,4.258-16.031,25.694-22.926,29.728C35.758,42.424,32.808,43.171,29.9,43.171z M52.055,13.08
	c-10.653,0.679-23.892,2.096-27.329,4.111c-2.362,1.381-4.043,3.599-4.743,6.253c-0.696,2.65-0.319,5.419,1.055,7.784
	c1.374,2.374,3.584,4.062,6.226,4.763c2.632,0.691,5.388,0.328,7.753-1.06C38.459,32.921,46.218,22.053,52.055,13.08z"/>
<path d="M7.999,42.286c-1.174,0-2.313-0.608-2.949-1.698c-0.945-1.635-0.396-3.731,1.229-4.683l23.555-13.788
	c1.637-0.945,3.71-0.398,4.663,1.234c0.945,1.635,0.396,3.731-1.229,4.683L9.712,41.822C9.171,42.136,8.581,42.286,7.999,42.286z"/>
<path style="fill:#84D839;" d="M29.873,125.827c-2.732-7.045-24.718-26.013-24.718-26.013s-3.418,28.906-0.686,35.951
	s10.634,10.534,17.649,7.788C29.132,140.807,32.605,132.874,29.873,125.827z"/>
<path d="M17.163,147.92c-2.326,0-4.652-0.485-6.849-1.454c-4.166-1.838-7.371-5.199-9.021-9.457
	c-2.895-7.467-0.109-32.63,0.476-37.6c0.15-1.253,0.975-2.326,2.147-2.784c1.181-0.457,2.502-0.227,3.458,0.592
	c3.78,3.263,22.781,19.905,25.675,27.365l0,0c1.654,4.262,1.555,8.91-0.28,13.099c-1.83,4.185-5.175,7.404-9.414,9.062
	C21.348,147.529,19.254,147.92,17.163,147.92z M7.852,106.77c-0.992,10.673-1.654,24.03-0.21,27.754
	c0.992,2.557,2.915,4.572,5.415,5.676c2.499,1.103,5.282,1.164,7.82,0.167c2.546-0.997,4.553-2.929,5.651-5.439
	c1.101-2.514,1.162-5.304,0.169-7.858C25.251,123.342,15.769,113.957,7.852,106.77z"/>
<path d="M26.359,157.911c-1.364,0-2.649-0.826-3.174-2.179l-9.897-25.513c-0.683-1.761,0.183-3.746,1.937-4.432
	c1.754-0.691,3.731,0.184,4.413,1.946l9.897,25.513c0.683,1.761-0.183,3.746-1.937,4.432
	C27.192,157.837,26.772,157.911,26.359,157.911z"/>
<path style="fill:#84D839;" d="M153.883,34.969c5.547,5.111,33.609,12.39,33.609,12.39s-9.631-27.455-15.177-32.567
	c-5.547-5.111-14.17-4.739-19.26,0.833S148.334,29.858,153.883,34.969z"/>
<path d="M187.492,50.78c-0.283,0-0.568-0.038-0.852-0.111c-4.825-1.249-29.186-7.765-35.06-13.179l0,0
	c-6.926-6.381-7.392-17.227-1.038-24.177c6.347-6.953,17.152-7.427,24.074-1.046c5.878,5.419,14.433,29.233,16.09,33.954
	c0.42,1.19,0.147,2.517-0.701,3.449C189.349,50.386,188.434,50.78,187.492,50.78z M156.187,32.449
	c2.932,2.7,15.565,6.922,25.829,9.861c-3.797-10.015-9.073-22.291-12.005-24.999c-4.159-3.825-10.639-3.54-14.45,0.628
	C151.753,22.111,152.033,28.619,156.187,32.449L156.187,32.449z"/>
<path d="M164.532,29.624c-0.826,0-1.65-0.297-2.302-0.899l-20.091-18.511c-1.388-1.28-1.481-3.442-0.21-4.837
	c1.275-1.394,3.434-1.488,4.816-0.21l20.091,18.511c1.388,1.28,1.481,3.442,0.21,4.837C166.374,29.25,165.456,29.624,164.532,29.624
	z"/>
<path style="fill:#84D839;" d="M178.389,111.52c-2.613,7.091,1.299,35.934,1.299,35.934s21.659-19.342,24.27-26.435
	c2.611-7.093-0.995-14.967-8.055-17.591C188.842,100.806,181.002,104.429,178.389,111.52z"/>
<path d="M179.689,150.879c-0.396,0-0.799-0.07-1.181-0.213c-1.181-0.439-2.028-1.493-2.196-2.748
	c-0.672-4.956-3.884-30.07-1.121-37.584c0.003,0,0.003,0,0.003,0c1.577-4.289,4.726-7.7,8.863-9.614
	c4.134-1.905,8.762-2.089,13.029-0.498c8.813,3.272,13.329,13.136,10.071,21.984c-2.765,7.514-21.478,24.48-25.202,27.807
	C181.319,150.581,180.51,150.879,179.689,150.879z M181.582,112.706c-1.377,3.756-0.49,17.097,0.686,27.75
	c7.794-7.323,17.113-16.874,18.497-20.623c1.954-5.311-0.759-11.228-6.043-13.193c-2.565-0.949-5.338-0.847-7.82,0.3
	C184.42,108.088,182.531,110.136,181.582,112.706L181.582,112.706z"/>
<path d="M190.498,121.528c-0.393,0-0.792-0.067-1.181-0.213c-1.766-0.655-2.669-2.623-2.014-4.395l9.458-25.68
	c0.652-1.775,2.616-2.681,4.376-2.022c1.766,0.655,2.669,2.623,2.014,4.395l-9.458,25.68
	C193.187,120.675,191.882,121.528,190.498,121.528z"/>
<path style="fill:#84D839;" d="M101.323,173.218c-7.503,0.628-31.857,16.408-31.857,16.408s26.621,11.508,34.123,10.88
	s13.076-7.247,12.452-14.781S108.825,172.59,101.323,173.218z"/>
<path d="M103.046,203.948c-8.615,0-30.502-9.265-34.927-11.177c-1.155-0.502-1.944-1.601-2.046-2.86
	c-0.106-1.26,0.49-2.473,1.548-3.162c4.186-2.71,25.472-16.271,33.42-16.94c0.003,0,0.003,0,0.003,0
	c4.526-0.408,8.946,1.036,12.419,3.988c3.475,2.954,5.598,7.09,5.973,11.645c0.379,4.555-1.031,8.984-3.97,12.474
	c-2.942,3.49-7.059,5.622-11.595,6.001C103.611,203.938,103.335,203.948,103.046,203.948z M76.875,189.003
	c9.904,3.99,22.378,8.387,26.431,8.093c2.722-0.23,5.192-1.507,6.955-3.603c1.763-2.092,2.613-4.75,2.386-7.484
	c-0.23-2.734-1.5-5.214-3.587-6.985c-2.084-1.775-4.719-2.633-7.448-2.396l0,0C97.641,176.961,85.983,183.425,76.875,189.003z"/>
<path d="M100.514,190.448c-1.754,0-3.244-1.35-3.391-3.139c-0.157-1.882,1.234-3.536,3.111-3.693l27.17-2.277
	c1.896-0.201,3.524,1.244,3.678,3.125c0.157,1.882-1.234,3.536-3.111,3.693l-27.17,2.277
	C100.703,190.445,100.606,190.448,100.514,190.448z"/>
<ellipse style="fill:#2ABBE9;" cx="100.539" cy="95.353" rx="62.193" ry="62.466"/>
<path d="M100.539,161.247c-36.171,0-65.601-29.558-65.601-65.888s29.43-65.888,65.601-65.888S166.14,59.03,166.14,95.36
	S136.712,161.247,100.539,161.247z M100.539,36.316c-32.415,0-58.784,26.486-58.784,59.042S68.126,154.4,100.539,154.4
	s58.784-26.486,58.784-59.042S132.954,36.316,100.539,36.316z"/>
<path style="fill:#84D839;" d="M40.814,77.945c5.356,1.138,10.375,2.888,11.703,5.553c3.149,6.325,9.446,6.325,15.746,0
	c6.298-6.325,15.746-12.652,6.298-22.139c-4.714-4.734-6.263-12.547-6.634-19.188C54.951,50.215,45.153,62.913,40.814,77.945z"/>
<path d="M59.19,91.666c-0.55,0-1.096-0.043-1.63-0.133c-3.405-0.555-6.281-2.864-8.09-6.501c-0.01-0.02-1.068-1.973-9.358-3.738
	c-0.928-0.198-1.731-0.771-2.217-1.591c-0.49-0.816-0.616-1.799-0.353-2.71c4.536-15.713,14.689-29.114,28.593-37.731
	c1.026-0.638,2.299-0.679,3.367-0.123c1.065,0.558,1.758,1.638,1.824,2.845c0.305,5.455,1.531,12.826,5.644,16.957
	c3.367,3.383,5.045,6.895,4.992,10.448c-0.087,5.893-4.779,10.329-8.919,14.242c-0.809,0.768-1.615,1.527-2.372,2.29
	C66.94,89.666,62.924,91.666,59.19,91.666z M45.182,75.491c5.661,1.594,8.996,3.686,10.383,6.479
	c0.829,1.664,1.867,2.608,3.086,2.807c1.987,0.317,4.553-1.036,7.202-3.697c0.806-0.809,1.661-1.618,2.519-2.434
	c3.311-3.128,6.733-6.364,6.775-9.363c0.027-1.632-0.981-3.483-2.995-5.506c-3.558-3.574-5.903-8.791-7.006-15.556
	C55.975,55.168,49.042,64.624,45.182,75.491z"/>
<path style="fill:#84D839;" d="M84.007,143.592c0,0,6.298-18.976,0-22.139c-6.298-3.162-12.595,0-15.746-9.489
	c-3.149-9.489,0-12.652,9.446-15.814c9.446-3.162,22.043,0,25.192,12.652c3.149,12.652-3.149,18.976-6.298,31.628
	C94.312,149.633,84.007,143.592,84.007,143.592z"/>
<path d="M90.625,148.956c-4.074,0-7.811-2.099-8.337-2.41c-1.391-0.816-2.024-2.5-1.517-4.035c2.886-8.711,3.352-17.178,1.71-18
	c-1.594-0.802-3.289-1.099-5.079-1.417c-4.28-0.759-9.605-1.698-12.373-10.047c-4.043-12.187,1.44-16.742,11.602-20.142
	c6.509-2.183,13.775-1.635,19.415,1.478c5.139,2.835,8.653,7.532,10.16,13.583c2.406,9.66-0.147,16.177-2.848,23.081
	c-1.225,3.132-2.493,6.371-3.451,10.211c-1.068,4.303-3.552,6.161-5.444,6.963C93.207,148.753,91.9,148.956,90.625,148.956z
	 M84.007,143.592h0.034H84.007z M88.156,141.677c1.338,0.415,2.76,0.621,3.668,0.234c0.246-0.108,1.005-0.432,1.475-2.309
	c1.062-4.272,2.473-7.878,3.717-11.061c2.586-6.605,4.456-11.378,2.582-18.912c-1.051-4.215-3.348-7.323-6.828-9.242
	c-4.007-2.21-9.242-2.574-13.981-0.99c-8.499,2.845-9.591,4.562-7.294,11.484c1.488,4.478,3.244,4.791,7.091,5.472
	c2.094,0.37,4.463,0.788,6.946,2.036C92.593,121.936,90.103,134.775,88.156,141.677z"/>
<path style="fill:#84D839;" d="M132.722,41.898c-9.399,9.231-19.615,20.768-14.075,22.624c9.446,3.162,15.746,6.325,15.746,6.325
	s-3.149,9.489-12.597,9.489c-9.446,0-22.043,0-22.043,3.162c0,3.162,18.895,15.814,18.895,18.976c0,3.162,4.072,16.741,6.298,18.976
	c3.149,3.162,12.597,6.325,15.746-6.325c3.149-12.652,0-22.139,6.298-25.303c3.521-1.768,8.023-10.373,11.312-17.621
	C153.258,59.526,144.215,48.892,132.722,41.898z"/>
<path d="M131.822,127.704c-3.741,0-7.255-1.792-9.288-3.833c-2.915-2.929-6.859-16.236-7.262-20.738
	c-1.034-1.475-5.349-5.084-8.253-7.518c-7.91-6.618-10.677-9.192-10.677-12.117c0-6.281,9.199-6.588,25.452-6.588
	c4.047,0,6.555-2.423,7.945-4.449c-2.686-1.183-6.946-2.944-12.17-4.697c-1.947-0.652-3.314-2.109-3.748-3.997
	c-0.749-3.268,0.63-8.714,16.517-24.317c1.118-1.089,2.823-1.283,4.147-0.481c12.138,7.383,21.719,18.732,26.979,31.961
	c0.346,0.869,0.323,1.838-0.063,2.691c-6.74,14.848-10.583,18.103-12.889,19.263c-1.961,0.983-2.294,3.393-2.693,9.523
	c-0.242,3.75-0.546,8.417-1.828,13.551c-1.94,7.805-6.074,10.479-9.199,11.344C133.802,127.582,132.804,127.704,131.822,127.704z
	 M104.63,84.476c1.801,1.741,4.646,4.122,6.75,5.883c7.91,6.618,10.677,9.192,10.677,12.117c0,2.5,3.755,14.71,5.335,16.596
	c0.981,0.986,3.471,2.214,5.588,1.638c2.495-0.695,3.773-3.871,4.407-6.41c1.128-4.536,1.398-8.677,1.633-12.334
	c0.413-6.361,0.806-12.37,6.446-15.201c0.319-0.16,3.202-1.898,9.119-14.633c-4.473-10.469-11.981-19.538-21.398-25.875
	c-9.385,9.443-11.831,13.744-12.471,15.355c9.013,3.086,14.945,6.05,15.203,6.176c1.517,0.763,2.246,2.528,1.707,4.145
	c-0.16,0.481-4.06,11.825-15.828,11.825C117.287,83.758,108.849,83.758,104.63,84.476z"/>
<g>
</g>
<g>
</g>
<g>
</g>
<g>
</g>
<g>
</g>
<g>
</g>
<g>
</g>
<g>
</g>
<g>
</g>
<g>
</g>
<g>
</g>
<g>
</g>
<g>
</g>
<g>
</g>
<g>
</g>
</svg>
