<?xml version="1.0" encoding="iso-8859-1"?>
<!-- Generator: Adobe Illustrator 19.0.0, SVG Export Plug-In . SVG Version: 6.00 Build 0)  -->
<svg version="1.1" id="Layer_1" xmlns="http://www.w3.org/2000/svg" xmlns:xlink="http://www.w3.org/1999/xlink" x="0px" y="0px"
	 viewBox="0 0 508 508" style="enable-background:new 0 0 508 508;" xml:space="preserve">
<circle style="fill:#90DFAA;" cx="254" cy="254" r="254"/>
<circle style="fill:#E6E9EE;" cx="291" cy="157.1" r="60.6"/>
<path style="fill:#FFFFFF;" d="M427.1,288.9c0,37.7-30.6,68.4-68.4,68.4H149.2c-37.8,0-68.4-30.6-68.4-68.4
	c0-24.2,12.5-45.4,31.4-57.5c-2.3-8.2-3.5-16.8-3.5-25.6c0-53.3,43.2-96.5,96.4-96.5c36.7,0,68.6,20.5,84.8,50.6
	c10.9-8.4,24.5-13.4,39.3-13.4c35.6,0,64.5,28.9,64.5,64.4c0,6.2-0.9,12.2-2.5,17.8C412.7,240.4,427.1,263,427.1,288.9z"/>
<polygon style="fill:#324A5E;" points="229.5,250 229.5,323.1 278.5,323.1 278.5,250 305.5,250 254,185.6 202.5,250 "/>
<g>
</g>
<g>
</g>
<g>
</g>
<g>
</g>
<g>
</g>
<g>
</g>
<g>
</g>
<g>
</g>
<g>
</g>
<g>
</g>
<g>
</g>
<g>
</g>
<g>
</g>
<g>
</g>
<g>
</g>
</svg>
