<?xml version="1.0" encoding="iso-8859-1"?>
<!-- Generator: Adobe Illustrator 19.0.0, SVG Export Plug-In . SVG Version: 6.00 Build 0)  -->
<svg version="1.1" id="Capa_1" xmlns="http://www.w3.org/2000/svg" xmlns:xlink="http://www.w3.org/1999/xlink" x="0px" y="0px"
	 viewBox="0 0 457.143 457.143" style="enable-background:new 0 0 457.143 457.143;" xml:space="preserve">
<path style="fill:#D4E1F4;" d="M334.89,332.539c-3.657,55.902-49.633,100.31-106.58,100.31s-103.445-44.408-106.58-100.833
	c0-2.09,0-3.657,0-5.747c0-59.037,47.543-106.58,106.58-106.58s106.58,47.543,106.58,106.58
	C334.89,328.359,334.89,330.449,334.89,332.539z"/>
<path style="fill:#4DCFE0;" d="M121.731,326.269c0,2.09,0,3.657,0,5.747h-1.045h-19.331c-47.543,0-85.682-38.139-85.682-85.682
	c0-23.51,9.404-44.408,24.033-59.559c-2.612-8.359-4.18-16.718-4.18-26.122c0-45.976,37.616-83.592,83.592-83.592
	c13.061,0,25.078,2.612,36.049,7.837c22.465-36.571,62.694-60.604,108.669-60.604c70.531,0,128,57.469,128,128
	c0,5.225-0.522,10.971-1.045,16.196c29.78,13.584,50.678,43.363,50.678,78.367c0,23.51-9.404,44.931-25.078,60.604
	c-15.673,15.673-37.094,25.078-60.604,25.078H334.89c0-2.09,0-4.18,0-6.269c0-59.037-47.543-106.58-106.58-106.58
	S121.731,267.233,121.731,326.269z"/>
<g>
	<path style="fill:#3A2C51;" d="M407.51,159.608c0-2.612,0-4.702,0-7.314c0-79.412-64.261-143.673-143.673-143.673
		c-45.976,0-87.771,20.898-114.416,56.947c-9.927-2.612-19.853-4.18-30.302-4.18c-54.857,0-99.265,44.408-99.265,99.265
		c0,7.314,1.045,14.629,2.612,21.943C7.837,200.359,0,222.824,0,246.335C0,302.237,45.453,347.69,101.355,347.69h6.269
		c10.449,57.469,60.604,100.833,120.686,100.833c59.559,0,109.714-42.841,120.163-100.31h7.314c27.167,0,52.767-10.449,71.576-29.78
		c19.331-19.331,29.78-44.408,29.78-71.576C457.143,210.808,437.812,177.894,407.51,159.608z M319.216,332.016
		c-3.135,47.543-43.363,85.159-90.906,85.159c-48.065,0-87.771-37.616-90.906-85.682v-5.224c0-50.155,40.751-90.906,90.906-90.906
		s90.906,40.751,90.906,90.906V332.016z M405.42,296.49c-13.061,13.061-30.824,20.376-49.633,20.376h-5.747
		c-4.702-63.216-57.469-112.849-121.731-112.849S111.804,253.649,106.58,316.343h-5.224c-38.661,0-70.008-31.347-70.008-70.008
		c0-18.286,6.792-35.527,19.853-48.588c4.18-4.18,5.224-9.927,3.657-15.673c-2.612-7.314-3.657-14.629-3.657-21.42
		c0-37.616,30.302-67.918,67.918-67.918c10.971,0,20.376,2.09,29.257,6.269c7.314,3.657,15.673,1.045,19.853-5.747
		c20.376-33.437,55.902-53.29,95.086-53.29c62.171,0,112.327,50.155,112.327,112.327c0,4.18-0.522,9.404-1.045,14.629
		c-0.522,6.792,3.135,13.061,8.882,15.673c25.078,11.494,41.273,36.571,41.273,64.261
		C425.796,265.665,418.482,283.429,405.42,296.49z"/>
	<path style="fill:#3A2C51;" d="M238.237,272.457c-5.747-5.224-14.629-5.224-20.376,0l-35.527,30.302
		c-6.792,5.747-7.314,15.673-1.567,21.943c5.747,6.792,15.673,7.314,21.943,1.567l9.927-8.359v53.812
		c0,8.882,6.792,15.673,15.673,15.673c8.882,0,15.673-6.792,15.673-15.673v-53.29l9.927,8.359c3.135,2.612,6.792,3.657,9.927,3.657
		c4.18,0,8.882-2.09,12.016-5.747c5.747-6.792,4.702-16.718-1.567-21.943L238.237,272.457z"/>
</g>
<g>
</g>
<g>
</g>
<g>
</g>
<g>
</g>
<g>
</g>
<g>
</g>
<g>
</g>
<g>
</g>
<g>
</g>
<g>
</g>
<g>
</g>
<g>
</g>
<g>
</g>
<g>
</g>
<g>
</g>
</svg>
