<svg id="Layer_1" enable-background="new 0 0 510.49 510.49" height="512" viewBox="0 0 510.49 510.49" width="512" xmlns="http://www.w3.org/2000/svg"><path d="m183.594 43.714c-42.842-30.616-80.795-8.729-75.7 43.705 6.703 68.974 79.537 158.873 126.526 131.739 47.092-27.188 5.418-135.253-50.826-175.444z" fill="#b375d3"/><path d="m298.95 36.226c-24.533-53.959-78.206-48.433-95.735 24.811 38.478 40.599 69.072 117.428 40.33 150.546 4.395 1.521 8.411 1.997 11.7 1.997 54.251 0 72.398-114.248 43.705-177.354z" fill="#b375d3"/><path d="m264.538 70.638c-10.388-22.848-29.1-41.062-52.851-34.697-3.438 7.506-6.288 15.965-8.473 25.096 40.984 43.242 67.978 118.689 40.33 150.546 6.828 2.362 13.896 2.637 20.856.776 18.116-39.525 18.226-101.939.138-141.721z" fill="#ae5ecc"/><path d="m236.498 217.853c-3.193-70.96-81.494-168.07-128.988-135.906 3.168 70.411 81.226 168.251 128.988 135.906z" fill="#ae5ecc"/><path d="m87.436 107.876c-52.409-5.093-74.335 32.84-43.705 75.7 40.287 56.374 148.311 97.822 175.445 50.827 27.19-47.09-62.952-119.842-131.74-126.527z" fill="#b375d3"/><path d="m215.217 239.925c-35.898-54.94-139.884-99.092-173.986-60.022 36.013 55.09 140.062 98.887 173.986 60.022z" fill="#ae5ecc"/><path d="m177.671 211.523c-39.597-18.005-101.79-18.024-141.428 0-47.934 21.794-47.957 65.606 0 87.41 39.597 18.005 101.79 18.024 141.428 0 47.934-21.794 47.957-65.606 0-87.41z" fill="#b375d3"/><path d="m29.658 295.648c60.649 32.981 182.629 16.191 183.927-39.63-60.414-32.839-182.627-16.296-183.927 39.63z" fill="#ae5ecc"/><path d="m219.176 276.052c-27.187-47.091-135.252-5.415-175.444 50.827-19.964 27.937-14.371 46.96-9.26 55.813 27.218 47.144 135.321 5.319 175.445-50.827 19.964-27.937 14.371-46.96 9.259-55.813z" fill="#b375d3"/><path d="m219.741 277.077c-67.509 10.079-150.788 78.858-126.352 124.75 67.478-10.075 150.79-78.858 126.352-124.75z" fill="#ae5ecc"/><path d="m234.42 291.297c-46.977-27.122-119.82 62.728-126.526 131.739-3.321 34.177 11.035 47.854 19.888 52.965 47.042 27.161 119.831-62.841 126.526-131.739 3.321-34.177-11.035-47.853-19.888-52.965z" fill="#b375d3"/><path d="m237.119 293.031c-59.741 30.115-112.157 148.385-65.859 181.23 59.713-30.079 112.198-148.376 65.859-181.23z" fill="#ae5ecc"/><path d="m298.95 332.802c-21.794-47.934-65.606-47.956-87.41 0-18.007 39.604-18.021 101.793 0 141.428 21.794 47.935 65.606 47.958 87.411 0 18.006-39.605 18.02-101.793-.001-141.428z" fill="#b375d3"/><path d="m299.477 473.015c17.484-39.692 17.306-100.991-.527-140.213-10.381-22.832-29.123-41.113-52.948-34.679-17.485 39.691-17.305 100.99.527 140.212 10.41 22.896 29.16 41.104 52.948 34.68z" fill="#ae5ecc"/><path d="m331.882 300.557c-42.84-30.616-80.795-8.732-75.7 43.705 6.703 68.974 79.537 158.873 126.526 131.739 47.092-27.188 5.418-135.253-50.826-175.444z" fill="#b375d3"/><path d="m331.882 300.557c-34.538-24.683-61.74-13.872-71.63 9.12 8.182 40.299 36.476 86.734 68.786 109.821 34.336 24.539 61.636 14.114 71.63-9.12-8.183-40.298-36.475-86.732-68.786-109.821z" fill="#ae5ecc"/><path d="m344.279 256.165c-52.396-5.101-74.342 32.829-43.706 75.699 40.294 56.384 148.312 97.819 175.445 50.827 27.19-47.089-62.936-119.839-131.739-126.526z" fill="#b375d3"/><path d="m425.677 350.774c25.022 0 36.556-11.089 41.63-19.148-35.742-58.623-145.522-105.336-175.04-58.431 25.019 41.037 87.687 77.579 133.41 77.579z" fill="#ae5ecc"/><path d="m474.247 211.523c-39.597-18.005-101.79-18.024-141.428 0-47.934 21.794-47.957 65.606 0 87.41 39.597 18.005 101.79 18.024 141.428 0 47.934-21.794 47.957-65.606 0-87.41z" fill="#b375d3"/><path d="m297.555 248.501c52.413 37.748 181.337 26.814 192.09-28.195-52.371-37.72-181.323-26.886-192.09 28.195z" fill="#ae5ecc"/><path d="m476.018 127.764c-27.185-47.093-135.252-5.416-175.445 50.827-19.964 27.937-14.371 46.96-9.259 55.813 27.217 47.144 135.321 5.318 175.444-50.827 19.965-27.937 14.372-46.96 9.26-55.813z" fill="#b375d3"/><path d="m287.152 223.024c61.734 7.66 165.171-61.795 155.24-115.065-61.752-7.661-165.181 61.739-155.24 115.065z" fill="#ae5ecc"/><path d="m382.708 34.455c-25.043-14.46-55.241 5.28-75.429 26.578 13.854 57.852-.437 136.762-40.338 150.546 3.111 3.585 6.384 5.996 9.128 7.58 47.042 27.161 119.831-62.841 126.526-131.739 3.322-34.177-11.034-47.854-19.887-52.965z" fill="#b375d3"/><path d="m324.082 45.798c-5.704 4.35-11.342 9.473-16.803 15.234 13.854 57.852-.437 136.762-40.338 150.546 5.281 6.086 11.89 9.849 19.226 11.481 60.938-46.427 97.956-163.904 37.915-177.261z" fill="#ae5ecc"/><path d="m255.245 168.156c-48.012 0-87.072 39.061-87.072 87.072s39.061 87.072 87.072 87.072 87.072-39.061 87.072-87.072-39.06-87.072-87.072-87.072z" fill="#eed572"/><path d="m255.245 168.156c-48.012 0-87.072 39.061-87.072 87.072s28.681-25.082 76.693-25.082 97.452 73.093 97.452 25.082-39.061-87.072-87.073-87.072z" fill="#feeb95"/><path d="m449.437 203.196c60.637-57.474 28.313-114.011-52.032-90.125 23.822-80.248-32.578-112.798-90.125-52.034-19.448-81.221-84.581-81.502-104.056.01-57.586-60.77-113.987-28.207-90.136 52.021-80.257-23.827-112.795 32.58-52.034 90.124-81.412 19.495-81.398 84.611-.001 104.068-60.856 57.68-27.861 113.876 52.032 90.125-23.673 79.742 32.468 112.914 90.125 52.034 19.495 81.42 84.612 81.39 104.067.001 57.798 60.977 113.779 27.53 90.126-52.033 80.043 23.763 112.878-32.5 52.034-90.124 81.411-19.494 81.397-84.61 0-104.067zm-70.155-48.402c36.616-18.692 65.19-17.669 69.023-11.03 3.658 6.336-10.046 34.91-52.034 59.152-25.021 14.447-46.35 19.422-60.278 19.745-1.631-4.03-3.556-7.911-5.748-11.617 19.966-13.716 37.04-35.314 49.037-56.25zm-68.965 100.434c0 30.367-24.706 55.072-55.072 55.072s-55.072-24.705-55.072-55.072 24.706-55.072 55.072-55.072 55.072 24.705 55.072 55.072zm-11.366-77.574c7.764-17.077 13.589-41.699 13.497-71.423 9.939-15.331 21.693-28.362 33.054-36.481 8.565-6.121 15.007-8.104 18.637-8.104 1.142 0 2.006.196 2.57.521 2.356 1.36 5.376 8.384 4.038 22.157-3.526 36.281-32.962 84.915-61.807 102.402-11.675-9.17-11.535-5.673-9.989-9.072zm-43.706-145.353c7.316 0 25.21 26.155 25.21 74.639 0 28.889-6.353 49.846-13.036 62.071-4.489-.631-8.611-.878-12.958-.846-1.906-24.251-12.059-49.747-24.187-70.605 2.149-43.072 18.227-65.259 24.971-65.259zm-111.463 29.866c.564-.325 1.427-.521 2.569-.521 3.63 0 10.074 1.983 18.638 8.104 29.909 21.372 57.046 71.271 57.779 104.693-4.062 1.639-7.973 3.577-11.706 5.784-13.697-19.93-35.119-36.889-56.251-49.036-8.307-16.273-13.716-32.968-15.067-46.866-1.338-13.774 1.681-20.797 4.038-22.158zm-81.598 81.597c1.129-1.955 6.155-4.367 15.704-4.367 34.581 0 89.113 29.838 108.798 62.213-9.313 11.883-5.597 11.467-9.015 9.913-21.538-9.794-47.971-13.59-71.454-13.498-35.724-23.057-47.447-48.347-44.033-54.261zm-29.866 111.464c0-7.316 26.155-25.211 74.639-25.211 28.889 0 49.846 6.354 62.071 13.037-.637 4.535-.883 8.738-.845 12.958-24.195 1.903-49.686 12.019-70.601 24.192-42.467-2.105-65.264-18.146-65.264-24.976zm98.89 100.434c-16.273 8.307-32.968 13.717-46.867 15.067-13.775 1.343-20.796-1.681-22.157-4.037-3.658-6.336 10.046-34.91 52.034-59.152 25.021-14.446 46.349-19.423 60.277-19.747 5.541 13.689 7.152 10.591 4.112 12.765-15.333 10.956-32.703 29.445-47.399 55.104zm66.835 48.564c-9.94 15.331-21.693 28.362-33.054 36.481-11.26 8.047-18.852 8.94-21.207 7.582-2.356-1.36-5.376-8.384-4.038-22.157 3.526-36.28 32.961-84.914 61.806-102.403 3.415 2.683 7.036 5.112 10.832 7.268-10.413 21.828-14.42 49.053-14.339 73.229zm57.202 73.93c-7.316 0-25.21-26.155-25.21-74.64 0-28.889 6.353-49.847 13.036-62.071 4.508.633 8.63.878 12.958.845 1.896 24.154 12 49.659 24.192 70.601-2.106 42.468-18.147 65.265-24.976 65.265zm111.463-29.867c-2.356 1.359-9.949.463-21.207-7.582-30.029-21.458-57.05-71.467-57.779-104.693 13.785-5.563 10.674-7.194 12.852-4.148 10.833 15.158 29.04 32.418 55.105 47.4 8.307 16.273 13.716 32.968 15.067 46.866 1.338 13.773-1.681 20.796-4.038 22.157zm81.598-81.597c-1.361 2.356-8.384 5.38-22.157 4.037-34.957-3.396-83.943-31.617-102.344-61.883 2.659-3.392 5.069-6.987 7.208-10.755 21.808 10.407 49.102 14.435 73.261 14.34 35.723 23.057 47.446 48.347 44.032 54.261zm-44.773-86.253c-28.889 0-49.846-6.354-62.071-13.037.633-4.507.882-8.698.845-12.943 24.084-1.912 49.545-11.956 70.601-24.208 42.467 2.105 65.264 18.146 65.264 24.976 0 7.317-26.155 25.212-74.639 25.212z"/></svg>