<?xml version="1.0" encoding="iso-8859-1"?>
<!-- Generator: Adobe Illustrator 22.1.0, SVG Export Plug-In . SVG Version: 6.00 Build 0)  -->
<svg xmlns="http://www.w3.org/2000/svg" xmlns:xlink="http://www.w3.org/1999/xlink" version="1.1" id="Layer_1_1_" x="0px" y="0px" viewBox="0 0 64 64" style="enable-background:new 0 0 64 64;" xml:space="preserve" width="512" height="512">
<g>
	<g>
		<g>
			<rect x="1" y="44" style="fill:#B27946;" width="62" height="19"/>
			<path style="fill:#ECC19C;" d="M13,34h2c0,1.1-0.45,2.1-1.17,2.83C13.1,37.55,12.1,38,11,38H9c0-1.1,0.45-2.1,1.17-2.83     C10.9,34.45,11.9,34,13,34z"/>
			<path style="fill:#B4DD7F;" d="M59,22h2c0,1.1-0.45,2.1-1.17,2.83C59.1,25.55,58.1,26,57,26h-2c0-1.1,0.45-2.1,1.17-2.83     C56.9,22.45,57.9,22,59,22z"/>
			<path style="fill:#ECC19C;" d="M52,36h2c0,1.1-0.45,2.1-1.17,2.83C52.1,39.55,51.1,40,50,40h-2c0-1.1,0.45-2.1,1.17-2.83     C49.9,36.45,50.9,36,52,36z"/>
			<path style="fill:#ECC19C;" d="M47,32h-2c-1.1,0-2.1-0.45-2.83-1.17C41.45,30.1,41,29.1,41,28h2c1.1,0,2.1,0.45,2.83,1.17     C46.55,29.9,47,30.9,47,32z"/>
			<path style="fill:#ECC19C;" d="M8,28H6c-1.1,0-2.1-0.45-2.83-1.17C2.45,26.1,2,25.1,2,24h2c1.1,0,2.1,0.45,2.83,1.17     C7.55,25.9,8,26.9,8,28z"/>
			<path style="fill:#CF9E76;" d="M25.39,33.39C26.46,28.68,27,23.85,27,19v-1v-6h3l2,8l2-8h3v7c0,0.67,0.01,1.33,0.03,2     c0.24,7.9,1.93,15.7,4.97,23H29h-7C23.43,40.56,24.57,37.01,25.39,33.39z"/>
			<path style="fill:#B4DD7F;" d="M62,2v1c0,2.76-2.24,5-5,5h-3V7c0-2.76,2.24-5,5-5H62z"/>
			<path style="fill:#B4DD7F;" d="M10,13v1H7c-2.76,0-5-2.24-5-5V8h3C7.76,8,10,10.24,10,13z"/>
		</g>
	</g>
	<g>
		<path d="M55,9h2c3.309,0,6-2.691,6-6V1h-4c-3.309,0-6,2.691-6,6v1v1v5.465L44.697,20h-6.673C38.019,19.666,38,19.334,38,19v-8    h-4.781L32,15.877L30.781,11H26v6h-4.434L19,12.723V7.5l-4.4-3.3L13.4,5.8L17,8.5v4.777l2.679,4.464l-2.784,2.088l-5.036-2.518    L11,13.878V13c0-3.309-2.691-6-6-6H1v2c0,3.309,2.691,6,6,6h2.22l0.922,3.689l4.964,2.482L12.4,23.2l1.199,1.6l7.733-5.8H26    c0,8.273-1.584,16.342-4.684,24H1v2h14.826l-4.286,5H5v2h6.323l1.89,4.725l4.34,2.17l0.895-1.789l-3.66-1.83l-1.634-4.085    L18.46,45H28v1.52l-5,4V55h2v-3.52l3.659-2.927l1.653,3.305L34,52.781v1.917l-1.592,2.388L26,58.153V63h2v-3.153l5.592-0.932    l1.654-2.481L38.4,58.8l1.199-1.6L36,54.5v-3.281l-2.244-0.561l2.951-2.951l-1.414-1.414l-3.686,3.686L30,46.764V45h16v3.667    l-3.265,4.353l4.483,5.605l1.562-1.249l-3.517-4.395l2.157-2.876l3.762,0.752l0.992,3.968l4.582,1.146l0.484-1.94l-3.418-0.854    l-1.008-4.032L48,48.18V45h15v-2H42.684c-2.724-6.729-4.276-13.776-4.611-21h6.564l6,5H54h1h2c2.757,0,5-2.243,5-5v-1h-3    c-2.414,0-4.434,1.721-4.899,4h-2.739l-4.693-3.911L55,15.535V9z M59,3h2c0,2.206-1.794,4-4,4h-2C55,4.794,56.794,3,59,3z M7,13    c-2.206,0-4-1.794-4-4h2c2.206,0,4,1.794,4,4H7z M23.461,43c0.981-2.51,1.818-5.058,2.481-7.645l1.155,1.156L28.219,41H33v-2    h-3.219l-0.674-2.694l3.599-3.599l-1.414-1.414L28,34.586l-1.527-1.527C27.477,28.461,28,23.765,28,19v-6h1.219l1.757,7.024    l-0.956,4.779l1.961,0.393l0.996-4.979L34.781,13H36v6c0,8.263,1.539,16.325,4.539,24H23.461z M59,23h0.829    c-0.413,1.164-1.525,2-2.829,2h-0.829C56.584,23.836,57.696,23,59,23z"/>
		<path d="M8,39h3c2.757,0,5-2.243,5-5v-1h-3c-2.757,0-5,2.243-5,5V39z M13,35h0.829c-0.413,1.164-1.525,2-2.829,2h-0.829    C10.584,35.836,11.696,35,13,35z"/>
		<path d="M55,36v-1h-3c-2.757,0-5,2.243-5,5v1h3C52.757,41,55,38.757,55,36z M52,37h0.829c-0.413,1.164-1.525,2-2.829,2h-0.829    C49.584,37.836,50.696,37,52,37z"/>
		<path d="M6,29h3v-1c0-2.757-2.243-5-5-5H1v1C1,26.757,3.243,29,6,29z M4,25c1.304,0,2.416,0.836,2.829,2H6    c-1.304,0-2.416-0.836-2.829-2H4z"/>
		<path d="M48,32c0-2.757-2.243-5-5-5h-3v1c0,2.757,2.243,5,5,5h3V32z M45,31c-1.304,0-2.416-0.836-2.829-2H43    c1.304,0,2.416,0.836,2.829,2H45z"/>
	</g>
</g>
</svg>
