<?xml version="1.0" encoding="iso-8859-1"?>
<!-- Generator: Adobe Illustrator 19.0.0, SVG Export Plug-In . SVG Version: 6.00 Build 0)  -->
<svg version="1.1" id="Capa_1" xmlns="http://www.w3.org/2000/svg" xmlns:xlink="http://www.w3.org/1999/xlink" x="0px" y="0px"
	 viewBox="0 0 191.147 191.147" style="enable-background:new 0 0 191.147 191.147;" xml:space="preserve">
<path style="fill:#84D839;" d="M41.05,42.53c6.516-3.796,21.775-28.489,21.775-28.489s-29.008,1.101-35.523,4.896
	c-6.516,3.796-8.719,12.155-4.924,18.671C26.175,44.122,34.534,46.326,41.05,42.53z"/>
<path d="M34.207,47.797c-5.879,0-11.61-3.036-14.776-8.474c-2.294-3.937-2.92-8.533-1.756-12.94c1.164-4.41,3.973-8.1,7.914-10.397
	c6.9-4.019,32.123-5.169,37.11-5.357c1.21-0.094,2.447,0.604,3.081,1.69c0.633,1.091,0.616,2.444-0.046,3.514
	c-2.623,4.246-16.056,25.624-22.963,29.647C40.073,47.049,37.12,47.797,34.207,47.797z M56.397,17.787
	c-10.67,0.676-23.929,2.091-27.373,4.099c-2.367,1.377-4.05,3.591-4.75,6.236c-0.696,2.644-0.321,5.403,1.056,7.764
	c1.377,2.367,3.591,4.05,6.236,4.75c2.637,0.689,5.396,0.326,7.767-1.056C42.779,37.574,50.55,26.737,56.397,17.787z"/>
<circle style="fill:#2ABBE9;" cx="94.72" cy="96.427" r="62.293"/>
<path d="M94.72,162.133c-36.231,0-65.707-29.476-65.707-65.707S58.489,30.72,94.72,30.72s65.707,29.476,65.707,65.707
	S130.951,162.133,94.72,162.133z M94.72,37.547c-32.466,0-58.88,26.414-58.88,58.88s26.414,58.88,58.88,58.88
	s58.88-26.414,58.88-58.88S127.186,37.547,94.72,37.547z"/>
<path style="fill:#84D839;" d="M34.898,79.061c5.364,1.135,10.392,2.879,11.721,5.538c3.154,6.308,9.462,6.308,15.771,0
	c6.308-6.308,15.771-12.616,6.308-22.079c-4.722-4.722-6.274-12.513-6.646-19.135C49.058,51.407,39.243,64.068,34.898,79.061z"/>
<path d="M53.303,92.744c-0.55,0-1.097-0.043-1.633-0.133c-3.41-0.553-6.291-2.857-8.103-6.484c-0.01-0.02-1.07-1.966-9.373-3.727
	c-0.93-0.196-1.734-0.77-2.22-1.587c-0.49-0.814-0.616-1.794-0.353-2.703c4.543-15.671,14.713-29.034,28.64-37.627
	c1.027-0.637,2.304-0.676,3.374-0.123c1.067,0.556,1.76,1.633,1.826,2.836c0.307,5.441,1.533,12.79,5.652,16.91
	c3.374,3.374,5.053,6.876,5.001,10.419c-0.087,5.876-4.787,10.3-8.933,14.203c-0.811,0.766-1.616,1.524-2.377,2.284
	C61.066,90.75,57.044,92.744,53.303,92.744z M39.274,76.614c5.67,1.591,9.009,3.676,10.4,6.46c0.829,1.661,1.871,2.599,3.091,2.801
	c1.983,0.336,4.56-1.033,7.214-3.686c0.807-0.807,1.664-1.613,2.524-2.427c3.316-3.12,6.743-6.347,6.787-9.337
	c0.027-1.626-0.983-3.473-3-5.49c-3.564-3.564-5.914-8.767-7.016-15.514C50.084,56.347,43.139,65.777,39.274,76.614z"/>
<path style="fill:#84D839;" d="M78.16,144.527c0,0,6.308-18.925,0-22.079c-6.308-3.154-12.616,0-15.771-9.462
	c-3.154-9.462,0-12.616,9.462-15.771c9.462-3.154,22.079,0,25.233,12.616c3.154,12.616-3.154,18.925-6.308,31.541
	C88.482,150.552,78.16,144.527,78.16,144.527z"/>
<path d="M84.791,149.876c-4.081,0-7.823-2.094-8.351-2.403c-1.393-0.814-2.028-2.493-1.521-4.023
	c2.889-8.687,3.357-17.13,1.713-17.951c-1.597-0.8-3.294-1.097-5.086-1.413c-4.287-0.756-9.62-1.693-12.394-10.02
	c-4.05-12.153,1.444-16.696,11.621-20.087c6.519-2.176,13.793-1.626,19.447,1.473c5.147,2.826,8.666,7.509,10.177,13.548
	c2.41,9.634-0.147,16.133-2.854,23.016c-1.227,3.123-2.497,6.354-3.456,10.184c-1.07,4.291-3.557,6.144-5.453,6.943
	C87.376,149.673,86.067,149.876,84.791,149.876z M78.16,144.527h0.034H78.16z M82.316,142.616c1.34,0.413,2.763,0.62,3.673,0.234
	c0.247-0.106,1.007-0.43,1.476-2.304c1.063-4.26,2.476-7.857,3.724-11.03c2.591-6.586,4.463-11.346,2.587-18.86
	c-1.053-4.204-3.354-7.303-6.84-9.216c-4.014-2.2-9.254-2.567-14.003-0.986c-8.513,2.836-9.607,4.55-7.306,11.453
	c1.49,4.466,3.25,4.777,7.103,5.456c2.097,0.37,4.47,0.787,6.956,2.029C86.76,122.93,84.267,135.733,82.316,142.616z"/>
<path style="fill:#84D839;" d="M126.954,43.112c-9.414,9.206-19.645,20.712-14.097,22.562c9.462,3.154,15.771,6.308,15.771,6.308
	s-3.154,9.462-12.616,9.462c-9.462,0-22.079,0-22.079,3.154c0,3.154,18.925,15.771,18.925,18.925c0,3.154,4.077,16.695,6.308,18.925
	c3.154,3.154,12.616,6.308,15.771-6.308c3.154-12.616,0-22.079,6.308-25.233c3.526-1.763,8.037-10.346,11.331-17.574
	C147.523,60.694,138.465,50.087,126.954,43.112z"/>
<path d="M126.053,128.683c-3.746,0-7.267-1.787-9.303-3.823c-2.92-2.92-6.869-16.189-7.274-20.68
	c-1.036-1.469-5.357-5.07-8.267-7.497c-7.924-6.6-10.694-9.167-10.694-12.083c0-6.263,9.213-6.571,25.494-6.571
	c4.053,0,6.567-2.417,7.956-4.437c-2.69-1.179-6.956-2.937-12.191-4.683c-1.951-0.65-3.319-2.103-3.753-3.987
	c-0.749-3.26,0.63-8.69,16.543-24.25c1.116-1.087,2.83-1.28,4.154-0.48c12.157,7.363,21.753,18.679,27.023,31.874
	c0.346,0.867,0.323,1.833-0.063,2.683c-6.75,14.807-10.6,18.053-12.909,19.21c-1.963,0.98-2.297,3.383-2.697,9.496
	c-0.244,3.739-0.546,8.393-1.83,13.513c-1.944,7.784-6.083,10.45-9.213,11.313C128.036,128.56,127.037,128.683,126.053,128.683z
	 M98.816,85.574c1.804,1.737,4.654,4.11,6.76,5.868c7.924,6.6,10.694,9.167,10.694,12.083c0,2.493,3.76,14.67,5.344,16.55
	c0.983,0.983,3.473,2.21,5.596,1.633c2.5-0.693,3.78-3.86,4.413-6.393c1.13-4.523,1.399-8.653,1.637-12.3
	c0.413-6.344,0.807-12.338,6.456-15.16c0.321-0.16,3.207-1.893,9.134-14.594c-4.48-10.44-12-19.483-21.434-25.803
	c-9.4,9.417-11.849,13.706-12.489,15.314c9.027,3.077,14.969,6.033,15.227,6.159c1.521,0.759,2.249,2.521,1.71,4.134
	c-0.16,0.48-4.067,11.793-15.853,11.793C111.493,84.857,103.043,84.857,98.816,85.574z"/>
<path d="M95.573,191.147C42.873,191.147,0,148.273,0,95.573c0-24.757,9.426-48.23,26.547-66.099
	c1.304-1.364,3.466-1.413,4.823-0.104c1.364,1.304,1.41,3.463,0.104,4.823C15.58,50.787,6.827,72.586,6.827,95.573
	c0,48.937,39.81,88.747,88.747,88.747s88.747-39.81,88.747-88.747S144.51,6.827,95.573,6.827c-1.886,0-3.413-1.527-3.413-3.413
	S93.687,0,95.573,0c52.7,0,95.573,42.873,95.573,95.573S148.273,191.147,95.573,191.147z"/>
<g>
</g>
<g>
</g>
<g>
</g>
<g>
</g>
<g>
</g>
<g>
</g>
<g>
</g>
<g>
</g>
<g>
</g>
<g>
</g>
<g>
</g>
<g>
</g>
<g>
</g>
<g>
</g>
<g>
</g>
</svg>
