<svg height="480pt" viewBox="0 0 480.00497 480" width="480pt" xmlns="http://www.w3.org/2000/svg"><path d="m472 472.007812h-464l7.304688-9.722656c34.683593-44.808594 88.332031-70.8125 144.992187-70.277344h159.941406c60.859375-.707031 117.953125 29.390626 151.761719 80zm0 0" fill="#d3843d"/><path d="m216 240.605469c0 39.402343-25.390625 71.402343-54.488281 71.402343-29.097657 0-54.496094-31.546874-54.496094-70.976562 0-39.433594-22.328125-116.722656 54.496094-78.863281 26.34375 12.972656 54.488281 39.007812 54.488281 78.4375zm0 0" fill="#55b56a"/><path d="m358.984375 209.359375c0 44.632813-25.710937 78.648437-56.046875 78.648437s-54.9375-34.015624-54.9375-78.648437 27.367188-69.953125 55.496094-86.503906c68.664062-40.410157 55.488281 41.878906 55.488281 86.503906zm0 0" fill="#55b56a"/><path d="m334.558594 163.429688c-2.527344-3.621094-7.511719-4.507813-11.132813-1.984376-1.671875 1.160157-3.144531 2.128907-4.496093 3.015626-9.171876 5.6875-16.660157 13.71875-21.691407 23.265624-11.195312 18.460938-17.925781 39.277344-19.652343 60.800782-1.355469 9.289062-2.746094 18.886718-5.363282 29.597656-5.460937 24.589844-16.097656 47.730469-31.199218 67.890625-5.671876-10.246094-10.773438-20.800781-15.28125-31.609375l-2.398438-5.601562c-3.785156-8.589844-6.671875-16-9.246094-22.605469-5.039062-15.984375-13.246094-30.789063-24.136718-43.527344-2.097657-2.320313-4.257813-4.800781-6.457032-7.289063-7.820312-10.308593-17.261718-19.285156-27.953125-26.578124-2.5625-1.289063-5.621093-1.109376-8.015625.476562-2.394531 1.582031-3.757812 4.328125-3.566406 7.195312.1875 2.863282 1.898438 5.410157 4.480469 6.664063 8.617187 6.566406 16.355469 14.214844 23.023437 22.753906 2.230469 2.542969 4.449219 5.0625 6.589844 7.441407 9.570312 11.339843 16.757812 24.492187 21.136719 38.671874 2.632812 6.734376 5.601562 14.398438 9.519531 23.199219l2.402344 5.464844c5.875 14.359375 12.859375 28.242187 20.878906 41.527344v61.808593c0 4.417969 3.582031 8 8 8s8-3.582031 8-8v-61.050781c19.5625-23.4375 33.207031-51.238281 39.777344-81.054687 2.789062-11.464844 4.238281-21.449219 5.648437-31.105469 1.378907-19.285156 7.320313-37.96875 17.335938-54.511719 3.8125-7.609375 9.683593-14 16.941406-18.445312 1.457031-.960938 3.066406-2 4.871094-3.273438 3.625-2.527344 4.511719-7.511718 1.984375-11.136718zm0 0" fill="#195c85"/><path d="m264 48.582031-22.664062-40.574219-25.335938 40.574219c-5.332031 6.753907-8.160156 15.148438-8 23.753907 0 17.671874 14.328125 32 32 32s32-14.328126 32-32c-.628906-8.464844-3.378906-16.632813-8-23.753907zm0 0" fill="#87cee9"/><path d="m320.238281 384.007812h-72.238281v-21.050781c17.273438-20.535156 29.882812-44.574219 36.953125-70.460937 5.714844 2.300781 11.8125 3.492187 17.976563 3.511718 35.917968 0 64.054687-38.058593 64.054687-86.648437 0-5.832031.222656-12.3125.472656-19.074219 1.152344-32.796875 2.453125-69.957031-18.402343-82.398437-12-7.199219-28.246094-4.519531-49.597657 8.0625-40 23.527343-59.441406 54.089843-59.441406 93.402343 0 32.230469 12.199219 59.742188 30.6875 74.679688-5.65625 22.429688-15.75 43.496094-29.6875 61.960938-5.667969-10.242188-10.765625-20.785157-15.273437-31.585938l-2.398438-5.601562c-3.785156-8.589844-6.671875-16-9.246094-22.605469l-.746094-1.878907c7.054688-13.488281 10.707032-28.492187 10.648438-43.714843 0-35.429688-22.039062-67.4375-58.953125-85.597657-24.75-12.203124-42.542969-14.191406-54.398437-6.097656-17.90625 12.222656-15.3125 42.542969-13.03125 69.296875.710937 8.34375 1.382812 16.230469 1.382812 22.839844 0 43.542969 28 78.976563 62.488281 78.976563 15.828125-.503907 30.683594-7.769532 40.800781-19.953126 1.855469 4.648438 3.902344 9.65625 6.34375 15.199219l2.398438 5.464844c5.910156 14.339844 12.921875 28.203125 20.96875 41.464844v21.808593h-71.703125c-59.171875-.503906-115.179687 26.679688-151.394531 73.480469l-7.300782 9.71875c-1.820312 2.421875-2.113281 5.667969-.757812 8.378907 1.355469 2.707031 4.125 4.421874 7.15625 4.421874h464c2.929688 0 5.625-1.597656 7.027344-4.171874 1.402344-2.570313 1.289062-5.703126-.300782-8.164063-35.410156-52.753906-94.953124-84.1875-158.488281-83.664063zm-64.238281-174.648437c0-33.601563 16.382812-58.921875 51.542969-79.617187 7.90625-5.390626 17.023437-8.734376 26.535156-9.734376 2.363281-.09375 4.703125.460938 6.769531 1.597657 12.746094 7.585937 11.511719 42.546875 10.617188 68.074219-.25 6.964843-.480469 13.640624-.480469 19.640624 0 38.957032-21.550781 70.644532-48.054687 70.644532-4.851563-.007813-9.640626-1.066406-14.042969-3.101563 2.066406-9.386719 3.335937-17.898437 4.539062-26.105469 1.378907-19.285156 7.320313-37.96875 17.335938-54.511718 3.8125-7.609375 9.683593-14 16.941406-18.449219 1.457031-.957031 3.066406-2 4.871094-3.269531 3.523437-2.566406 4.34375-7.472656 1.851562-11.042969-2.488281-3.574219-7.378906-4.496094-11-2.078125-1.671875 1.160156-3.144531 2.128906-4.496093 3.015625-9.171876 5.6875-16.660157 13.71875-21.691407 23.265625-11.195312 18.457031-17.925781 39.277344-19.652343 60.800781-.800782 5.679688-1.707032 11.519531-2.832032 17.597657-12.847656-16.050782-19.5-36.183594-18.753906-56.726563zm-51.433594 54.589844c-3.882812-7.734375-8.804687-14.902344-14.628906-21.304688-2.097656-2.316406-4.257812-4.796875-6.457031-7.285156-7.816407-10.300781-17.246094-19.265625-27.929688-26.554687-2.5625-1.289063-5.621093-1.109376-8.015625.476562-2.394531 1.582031-3.757812 4.328125-3.566406 7.195312.1875 2.863282 1.898438 5.410157 4.480469 6.664063 8.617187 6.566406 16.355469 14.214844 23.023437 22.753906 2.230469 2.542969 4.449219 5.0625 6.589844 7.441407 7.683594 8.703124 13.65625 18.78125 17.601562 29.703124-7.15625 12.269532-19.980468 20.140626-34.160156 20.96875-25.199218 0-46.488281-28.800781-46.488281-62.976562 0-7.289062-.703125-15.503906-1.449219-24.207031-1.804687-21.28125-4.070312-47.761719 6.113282-54.714844 2.496093-1.523437 5.398437-2.257813 8.320312-2.101563 10.550781.957032 20.777344 4.148438 30 9.359376 15.039062 7.40625 50.023438 29.183593 50.023438 71.261718-.007813 7.902344-1.171876 15.757813-3.457032 23.320313zm-180.488281 200.058593c33.328125-40.917968 83.449219-64.46875 136.21875-64h71.703125v24c0 4.417969 3.582031 8 8 8s8-3.582031 8-8v-24h72.238281c52.738281-.34375 102.804688 23.183594 136.203125 64zm0 0"/><path d="m241.527344.0078125c-2.832032-.0898437-5.496094 1.3398435-6.984375 3.7499995l-24.957031 40c-6.308594 8.183594-9.683594 18.246094-9.585938 28.578126 0 22.089843 17.910156 40 40 40s40-17.910157 40-40c-.535156-9.878907-3.660156-19.441407-9.0625-27.730469l-22.617188-40.503907c-1.378906-2.46875-3.964843-4.0273432-6.792968-4.0937495zm15.578125 52.6210935c3.917969 5.882813 6.292969 12.660156 6.894531 19.707032 0 13.253906-10.746094 24-24 24s-24-10.746094-24-24c-.128906-6.582032 1.929688-13.019532 5.855469-18.304688.347656-.375.660156-.777344.9375-1.207031l18.160156-29.097657 16.0625 28.800782zm0 0"/></svg>